<svg id="Layer_1" viewBox="0 0 24 24" xmlns="http://www.w3.org/2000/svg" data-name="Layer 1"><path d="m1.423 9.813c-.018-.078-.423-1.949-.423-3.813s.406-3.735.423-3.813c.083-.382.381-.679.762-.763.079-.018 1.95-.424 3.815-.424s3.736.406 3.815.424c.381.084.678.381.762.763.018.078.423 1.949.423 3.813s-.406 3.735-.423 3.813c-.083.382-.381.679-.762.763-.079.018-1.95.424-3.815.424s-3.736-.406-3.815-.424c-.381-.084-.678-.381-.762-.763zm21.153 4.373c-.083-.382-.381-.679-.762-.763-.079-.018-1.95-.424-3.815-.424s-3.736.406-3.815.424c-.381.084-.678.381-.762.763-.018.078-.423 1.949-.423 3.813s.406 3.735.423 3.813c.083.382.381.679.762.763.079.018 1.95.424 3.815.424s3.736-.406 3.815-.424c.381-.084.678-.381.762-.763.018-.078.423-1.949.423-3.813s-.406-3.735-.423-3.813zm-7.178-6.387c.624.5 1.627 0 1.601-.8v-.982c.794.028 1.392.086 1.806.144.114.687.219 2.175.194 3.338 0 .828.671 1.5 1.5 1.5s1.5-.672 1.5-1.5c.078-2.137-.419-5.186-.445-4.964-.121-.483-.474-.875-.942-1.045-.2-.073-1.23-.4-3.614-.475v-1.016c.026-.799-.976-1.3-1.601-.8-1.023.768-1.932 1.676-2.699 2.699-.267.356-.267.845 0 1.201.768 1.023 1.676 1.932 2.699 2.699zm-7.298 8.4c-.624-.5-1.627 0-1.601.8v.982c-.794-.028-1.392-.086-1.806-.144-.114-.687-.219-2.175-.194-3.338 0-.828-.671-1.5-1.5-1.5s-1.5.672-1.5 1.5c-.078 2.137.419 5.186.445 4.964.121.483.474.875.942 1.045.2.073 1.23.4 3.614.475v1.016c-.026.8.976 1.3 1.601.8 1.023-.768 1.932-1.676 2.699-2.699.267-.356.267-.845 0-1.201-.768-1.023-1.676-1.932-2.699-2.699z"/></svg>